<svg width="491" height="184" viewBox="0 0 491 184" fill="none" xmlns="http://www.w3.org/2000/svg">
<rect x="69" y="32" width="40" height="6" fill="white"/>
<rect x="46" y="48" width="86" height="6" fill="white"/>
<rect x="36" y="64" width="106" height="6" fill="white"/>
<rect x="32" y="81" width="114" height="6" fill="white"/>
<rect x="32" y="97" width="114" height="6" fill="white"/>
<rect x="36" y="113" width="106" height="6" fill="white"/>
<rect x="46" y="130" width="86" height="6" fill="white"/>
<rect x="69" y="146" width="40" height="6" fill="white"/>
<path d="M207.531 102.5C207.531 101.438 207.365 100.5 207.031 99.6875C206.719 98.8542 206.156 98.1042 205.344 97.4375C204.552 96.7708 203.448 96.1354 202.031 95.5312C200.635 94.9271 198.865 94.3125 196.719 93.6875C194.469 93.0208 192.438 92.2812 190.625 91.4688C188.812 90.6354 187.26 89.6875 185.969 88.625C184.677 87.5625 183.688 86.3438 183 84.9688C182.312 83.5938 181.969 82.0208 181.969 80.25C181.969 78.4792 182.333 76.8438 183.062 75.3438C183.792 73.8438 184.833 72.5417 186.188 71.4375C187.562 70.3125 189.198 69.4375 191.094 68.8125C192.99 68.1875 195.104 67.875 197.438 67.875C200.854 67.875 203.75 68.5312 206.125 69.8438C208.521 71.1354 210.344 72.8333 211.594 74.9375C212.844 77.0208 213.469 79.25 213.469 81.625H207.469C207.469 79.9167 207.104 78.4062 206.375 77.0938C205.646 75.7604 204.542 74.7188 203.062 73.9688C201.583 73.1979 199.708 72.8125 197.438 72.8125C195.292 72.8125 193.521 73.1354 192.125 73.7812C190.729 74.4271 189.688 75.3021 189 76.4062C188.333 77.5104 188 78.7708 188 80.1875C188 81.1458 188.198 82.0208 188.594 82.8125C189.01 83.5833 189.646 84.3021 190.5 84.9688C191.375 85.6354 192.479 86.25 193.812 86.8125C195.167 87.375 196.781 87.9167 198.656 88.4375C201.24 89.1667 203.469 89.9792 205.344 90.875C207.219 91.7708 208.76 92.7812 209.969 93.9062C211.198 95.0104 212.104 96.2708 212.688 97.6875C213.292 99.0833 213.594 100.667 213.594 102.438C213.594 104.292 213.219 105.969 212.469 107.469C211.719 108.969 210.646 110.25 209.25 111.312C207.854 112.375 206.177 113.198 204.219 113.781C202.281 114.344 200.115 114.625 197.719 114.625C195.615 114.625 193.542 114.333 191.5 113.75C189.479 113.167 187.635 112.292 185.969 111.125C184.323 109.958 183 108.521 182 106.812C181.021 105.083 180.531 103.083 180.531 100.812H186.531C186.531 102.375 186.833 103.719 187.438 104.844C188.042 105.948 188.865 106.865 189.906 107.594C190.969 108.323 192.167 108.865 193.5 109.219C194.854 109.552 196.26 109.719 197.719 109.719C199.823 109.719 201.604 109.427 203.062 108.844C204.521 108.26 205.625 107.427 206.375 106.344C207.146 105.26 207.531 103.979 207.531 102.5ZM226.688 80.1875V114H220.875V80.1875H226.688ZM220.438 71.2188C220.438 70.2812 220.719 69.4896 221.281 68.8438C221.865 68.1979 222.719 67.875 223.844 67.875C224.948 67.875 225.792 68.1979 226.375 68.8438C226.979 69.4896 227.281 70.2812 227.281 71.2188C227.281 72.1146 226.979 72.8854 226.375 73.5312C225.792 74.1562 224.948 74.4688 223.844 74.4688C222.719 74.4688 221.865 74.1562 221.281 73.5312C220.719 72.8854 220.438 72.1146 220.438 71.2188ZM241.719 86.9062V114H235.906V80.1875H241.406L241.719 86.9062ZM240.531 95.8125L237.844 95.7188C237.865 93.4062 238.167 91.2708 238.75 89.3125C239.333 87.3333 240.198 85.6146 241.344 84.1562C242.49 82.6979 243.917 81.5729 245.625 80.7812C247.333 79.9688 249.312 79.5625 251.562 79.5625C253.146 79.5625 254.604 79.7917 255.938 80.25C257.271 80.6875 258.427 81.3854 259.406 82.3438C260.385 83.3021 261.146 84.5312 261.688 86.0312C262.229 87.5312 262.5 89.3438 262.5 91.4688V114H256.719V91.75C256.719 89.9792 256.417 88.5625 255.812 87.5C255.229 86.4375 254.396 85.6667 253.312 85.1875C252.229 84.6875 250.958 84.4375 249.5 84.4375C247.792 84.4375 246.365 84.7396 245.219 85.3438C244.073 85.9479 243.156 86.7812 242.469 87.8438C241.781 88.9062 241.281 90.125 240.969 91.5C240.677 92.8542 240.531 94.2917 240.531 95.8125ZM262.438 92.625L258.562 93.8125C258.583 91.9583 258.885 90.1771 259.469 88.4688C260.073 86.7604 260.938 85.2396 262.062 83.9062C263.208 82.5729 264.615 81.5208 266.281 80.75C267.948 79.9583 269.854 79.5625 272 79.5625C273.812 79.5625 275.417 79.8021 276.812 80.2812C278.229 80.7604 279.417 81.5 280.375 82.5C281.354 83.4792 282.094 84.7396 282.594 86.2812C283.094 87.8229 283.344 89.6562 283.344 91.7812V114H277.531V91.7188C277.531 89.8229 277.229 88.3542 276.625 87.3125C276.042 86.25 275.208 85.5104 274.125 85.0938C273.062 84.6562 271.792 84.4375 270.312 84.4375C269.042 84.4375 267.917 84.6562 266.938 85.0938C265.958 85.5312 265.135 86.1354 264.469 86.9062C263.802 87.6562 263.292 88.5208 262.938 89.5C262.604 90.4792 262.438 91.5208 262.438 92.625ZM297.875 86.6875V127H292.062V80.1875H297.375L297.875 86.6875ZM320.656 96.8125V97.4688C320.656 99.9271 320.365 102.208 319.781 104.312C319.198 106.396 318.344 108.208 317.219 109.75C316.115 111.292 314.75 112.49 313.125 113.344C311.5 114.198 309.635 114.625 307.531 114.625C305.385 114.625 303.49 114.271 301.844 113.562C300.198 112.854 298.802 111.823 297.656 110.469C296.51 109.115 295.594 107.49 294.906 105.594C294.24 103.698 293.781 101.562 293.531 99.1875V95.6875C293.781 93.1875 294.25 90.9479 294.938 88.9688C295.625 86.9896 296.531 85.3021 297.656 83.9062C298.802 82.4896 300.188 81.4167 301.812 80.6875C303.438 79.9375 305.312 79.5625 307.438 79.5625C309.562 79.5625 311.448 79.9792 313.094 80.8125C314.74 81.625 316.125 82.7917 317.25 84.3125C318.375 85.8333 319.219 87.6562 319.781 89.7812C320.365 91.8854 320.656 94.2292 320.656 96.8125ZM314.844 97.4688V96.8125C314.844 95.125 314.667 93.5417 314.312 92.0625C313.958 90.5625 313.406 89.25 312.656 88.125C311.927 86.9792 310.99 86.0833 309.844 85.4375C308.698 84.7708 307.333 84.4375 305.75 84.4375C304.292 84.4375 303.021 84.6875 301.938 85.1875C300.875 85.6875 299.969 86.3646 299.219 87.2188C298.469 88.0521 297.854 89.0104 297.375 90.0938C296.917 91.1562 296.573 92.2604 296.344 93.4062V101.5C296.76 102.958 297.344 104.333 298.094 105.625C298.844 106.896 299.844 107.927 301.094 108.719C302.344 109.49 303.917 109.875 305.812 109.875C307.375 109.875 308.719 109.552 309.844 108.906C310.99 108.24 311.927 107.333 312.656 106.188C313.406 105.042 313.958 103.729 314.312 102.25C314.667 100.75 314.844 99.1562 314.844 97.4688ZM334.312 66V114H328.5V66H334.312ZM349.875 80.1875V114H344.062V80.1875H349.875ZM343.625 71.2188C343.625 70.2812 343.906 69.4896 344.469 68.8438C345.052 68.1979 345.906 67.875 347.031 67.875C348.135 67.875 348.979 68.1979 349.562 68.8438C350.167 69.4896 350.469 70.2812 350.469 71.2188C350.469 72.1146 350.167 72.8854 349.562 73.5312C348.979 74.1562 348.135 74.4688 347.031 74.4688C345.906 74.4688 345.052 74.1562 344.469 73.5312C343.906 72.8854 343.625 72.1146 343.625 71.2188ZM372.688 109.875C374.062 109.875 375.333 109.594 376.5 109.031C377.667 108.469 378.625 107.698 379.375 106.719C380.125 105.719 380.552 104.583 380.656 103.312H386.156C386.052 105.312 385.375 107.177 384.125 108.906C382.896 110.615 381.281 112 379.281 113.062C377.281 114.104 375.083 114.625 372.688 114.625C370.146 114.625 367.927 114.177 366.031 113.281C364.156 112.385 362.594 111.156 361.344 109.594C360.115 108.031 359.188 106.24 358.562 104.219C357.958 102.177 357.656 100.021 357.656 97.75V96.4375C357.656 94.1667 357.958 92.0208 358.562 90C359.188 87.9583 360.115 86.1562 361.344 84.5938C362.594 83.0312 364.156 81.8021 366.031 80.9062C367.927 80.0104 370.146 79.5625 372.688 79.5625C375.333 79.5625 377.646 80.1042 379.625 81.1875C381.604 82.25 383.156 83.7083 384.281 85.5625C385.427 87.3958 386.052 89.4792 386.156 91.8125H380.656C380.552 90.4167 380.156 89.1562 379.469 88.0312C378.802 86.9062 377.885 86.0104 376.719 85.3438C375.573 84.6562 374.229 84.3125 372.688 84.3125C370.917 84.3125 369.427 84.6667 368.219 85.375C367.031 86.0625 366.083 87 365.375 88.1875C364.688 89.3542 364.188 90.6562 363.875 92.0938C363.583 93.5104 363.438 94.9583 363.438 96.4375V97.75C363.438 99.2292 363.583 100.688 363.875 102.125C364.167 103.562 364.656 104.865 365.344 106.031C366.052 107.198 367 108.135 368.188 108.844C369.396 109.531 370.896 109.875 372.688 109.875ZM398.938 80.1875V114H393.125V80.1875H398.938ZM392.688 71.2188C392.688 70.2812 392.969 69.4896 393.531 68.8438C394.115 68.1979 394.969 67.875 396.094 67.875C397.198 67.875 398.042 68.1979 398.625 68.8438C399.229 69.4896 399.531 70.2812 399.531 71.2188C399.531 72.1146 399.229 72.8854 398.625 73.5312C398.042 74.1562 397.198 74.4688 396.094 74.4688C394.969 74.4688 394.115 74.1562 393.531 73.5312C392.969 72.8854 392.688 72.1146 392.688 71.2188ZM422.375 80.1875V84.625H404.094V80.1875H422.375ZM410.281 71.9688H416.062V105.625C416.062 106.771 416.24 107.635 416.594 108.219C416.948 108.802 417.406 109.188 417.969 109.375C418.531 109.562 419.135 109.656 419.781 109.656C420.26 109.656 420.76 109.615 421.281 109.531C421.823 109.427 422.229 109.344 422.5 109.281L422.531 114C422.073 114.146 421.469 114.281 420.719 114.406C419.99 114.552 419.104 114.625 418.062 114.625C416.646 114.625 415.344 114.344 414.156 113.781C412.969 113.219 412.021 112.281 411.312 110.969C410.625 109.635 410.281 107.844 410.281 105.594V71.9688ZM443.188 114.625C440.833 114.625 438.698 114.229 436.781 113.438C434.885 112.625 433.25 111.49 431.875 110.031C430.521 108.573 429.479 106.844 428.75 104.844C428.021 102.844 427.656 100.656 427.656 98.2812V96.9688C427.656 94.2188 428.062 91.7708 428.875 89.625C429.688 87.4583 430.792 85.625 432.188 84.125C433.583 82.625 435.167 81.4896 436.938 80.7188C438.708 79.9479 440.542 79.5625 442.438 79.5625C444.854 79.5625 446.938 79.9792 448.688 80.8125C450.458 81.6458 451.906 82.8125 453.031 84.3125C454.156 85.7917 454.99 87.5417 455.531 89.5625C456.073 91.5625 456.344 93.75 456.344 96.125V98.7188H431.094V94H450.562V93.5625C450.479 92.0625 450.167 90.6042 449.625 89.1875C449.104 87.7708 448.271 86.6042 447.125 85.6875C445.979 84.7708 444.417 84.3125 442.438 84.3125C441.125 84.3125 439.917 84.5938 438.812 85.1562C437.708 85.6979 436.76 86.5104 435.969 87.5938C435.177 88.6771 434.562 90 434.125 91.5625C433.688 93.125 433.469 94.9271 433.469 96.9688V98.2812C433.469 99.8854 433.688 101.396 434.125 102.812C434.583 104.208 435.24 105.438 436.094 106.5C436.969 107.562 438.021 108.396 439.25 109C440.5 109.604 441.917 109.906 443.5 109.906C445.542 109.906 447.271 109.49 448.688 108.656C450.104 107.823 451.344 106.708 452.406 105.312L455.906 108.094C455.177 109.198 454.25 110.25 453.125 111.25C452 112.25 450.615 113.062 448.969 113.688C447.344 114.312 445.417 114.625 443.188 114.625ZM439.219 75.1875L445.281 66H452.25L443.875 75.1875H439.219Z" fill="white"/>
</svg>
